<svg width="40" height="40" viewBox="0 0 40 40" fill="#fff" xmlns="http://www.w3.org/2000/svg">
  <mask id="path-1-inside-1" fill="white">
    <path fill-rule="evenodd" clip-rule="evenodd" d="M0 0H32L40 8V40H8L0 32V0Z"></path>
  </mask>
  <path d="M32 0L32.7071 -0.707107L32.4142 -1H32V0ZM0 0V-1H-1V0H0ZM40 8H41V7.58579L40.7071 7.29289L40 8ZM40 40V41H41V40H40ZM8 40L7.29289 40.7071L7.58579 41H8V40ZM0 32H-1V32.4142L-0.707107 32.7071L0 32ZM32 -1H0V1H32V-1ZM40.7071 7.29289L32.7071 -0.707107L31.2929 0.707107L39.2929 8.70711L40.7071 7.29289ZM41 40V8H39V40H41ZM8 41H40V39H8V41ZM-0.707107 32.7071L7.29289 40.7071L8.70711 39.2929L0.707107 31.2929L-0.707107 32.7071ZM-1 0V32H1V0H-1Z" fill="white" mask="url(#path-1-inside-1)"></path>
</svg>