<svg xmlns="http://www.w3.org/2000/svg" width="1920" height="17" fill="none" viewBox="0 0 1920 17"><path fill="#151D24" fill-rule="evenodd" d="M393.5 3C394.881 3 396 1.88071 396 0.5C396 0.328767 395.983 0.161555 395.95 0H499L504 5H653L658 0H771.674C771.242 0.909255 771 1.9264 771 3C771 6.86599 774.134 10 778 10C781.866 10 785 6.86599 785 3C785 1.9264 784.758 0.909255 784.326 0H859L870 11H1053L1058 6H899L903 10H870L860 0H1244L1235.27 8.73223C1234.82 8.27982 1234.19 8 1233.5 8C1232.29 8 1231.28 8.85888 1231.05 10H1118L1112 4V13H1121L1119 11H1231.05C1231.28 12.1411 1232.29 13 1233.5 13C1234.88 13 1236 11.8807 1236 10.5C1236 10.0668 1235.89 9.65931 1235.7 9.30407L1245 0H1273V5H1286L1281 0H1363L1366 2.5L1366.65 3H1342L1339 6H1306.95C1306.72 4.85888 1305.71 4 1304.5 4C1303.12 4 1302 5.11929 1302 6.5C1302 7.88071 1303.12 9 1304.5 9C1305.71 9 1306.72 8.14112 1306.95 7H1339L1342 4H1367.95L1369.25 5H1603L1608 0H1617.67C1617.24 0.909255 1617 1.9264 1617 3C1617 6.86599 1620.13 10 1624 10C1627.87 10 1631 6.86599 1631 3C1631 1.9264 1630.76 0.909255 1630.33 0H1705L1716 11H1899L1904 6H1745L1749 10H1716L1706 0H1920V17H0V11H93L96 14H169.268C169.613 14.5978 170.26 15 171 15C172.105 15 173 14.1046 173 13C173 11.8954 172.105 11 171 11C169.895 11 169 11.8954 169 13H96L93 10H0V0H34L39 5H188L193 0H240V9L249 0H257V4H266V0H308L316 8H448V7H316L309 0H391.05C391.017 0.161555 391 0.328767 391 0.5C391 1.88071 392.119 3 393.5 3ZM275 4H284V13H275V4ZM220 4H211V13H220V4ZM293 4H289V8H293V4ZM299 4L308 13H299V4ZM558 10H458V11H558L561 14H634.268C634.613 14.5978 635.26 15 636 15C637.105 15 638 14.1046 638 13C638 11.8954 637.105 11 636 11C634.895 11 634 11.8954 634 13H561L558 10ZM704 7C704 8.10457 703.105 9 702 9C700.895 9 700 8.10457 700 7C700 5.89543 700.895 5 702 5C703.105 5 704 5.89543 704 7ZM1649 13C1651.76 13 1654 10.7614 1654 8C1654 5.23858 1651.76 3 1649 3C1646.24 3 1644 5.23858 1644 8C1644 10.7614 1646.24 13 1649 13ZM1589 10C1589 11.1046 1588.1 12 1587 12C1585.9 12 1585 11.1046 1585 10C1585 8.89543 1585.9 8 1587 8C1588.1 8 1589 8.89543 1589 10ZM857.5 14C858.881 14 860 12.8807 860 11.5C860 10.1193 858.881 9 857.5 9C856.119 9 855 10.1193 855 11.5C855 12.8807 856.119 14 857.5 14ZM1706 11.5C1706 12.8807 1704.88 14 1703.5 14C1702.12 14 1701 12.8807 1701 11.5C1701 10.1193 1702.12 9 1703.5 9C1704.88 9 1706 10.1193 1706 11.5ZM367 14C367.552 14 368 13.5523 368 13C368 12.4477 367.552 12 367 12C366.448 12 366 12.4477 366 13C366 13.5523 366.448 14 367 14Z" clip-rule="evenodd"/></svg>