<svg width="107" height="102" viewBox="0 0 107 102" fill="none" xmlns="http://www.w3.org/2000/svg">
<g filter="url(#filter0_d)">
<path fill-rule="evenodd" clip-rule="evenodd" d="M53.4998 82.2439C73.2405 82.2439 89.2434 66.241 89.2434 46.5003C89.2434 26.7597 73.2405 10.7567 53.4998 10.7567C33.7592 10.7567 17.7562 26.7597 17.7562 46.5003C17.7562 66.241 33.7592 82.2439 53.4998 82.2439ZM53.4998 83.3337C73.8423 83.3337 90.3332 66.8428 90.3332 46.5003C90.3332 26.1578 73.8423 9.66699 53.4998 9.66699C33.1574 9.66699 16.6665 26.1578 16.6665 46.5003C16.6665 66.8428 33.1574 83.3337 53.4998 83.3337Z" fill="#FF004D"/>
</g>
<g opacity="0.6" filter="url(#filter1_d)">
<path fill-rule="evenodd" clip-rule="evenodd" d="M86.1757 47.5501L85.6311 47.533C85.6419 47.19 85.6474 46.8456 85.6474 46.4999C85.6474 46.1543 85.6419 45.8099 85.6311 45.4669L86.1757 45.4497C86.1867 45.7984 86.1922 46.1485 86.1922 46.4999C86.1922 46.8513 86.1867 47.2014 86.1757 47.5501ZM85.5951 40.2479L85.0601 40.3515C84.9289 39.674 84.7765 39.0041 84.6035 38.3426L85.1306 38.2047C85.3066 38.8776 85.4616 39.5589 85.5951 40.2479ZM83.4015 33.263L82.9034 33.4839C82.6243 32.8543 82.3256 32.2354 82.008 31.6278L82.4909 31.3754C82.8139 31.9933 83.1177 32.6227 83.4015 33.263ZM79.7019 26.9456L79.2655 27.2718C78.8537 26.721 78.4247 26.1838 77.9793 25.661L78.394 25.3076C78.847 25.8392 79.2832 26.3854 79.7019 26.9456ZM74.6923 21.6059L74.3389 22.0206C73.8161 21.5751 73.2789 21.1461 72.7281 20.7344L73.0543 20.298C73.6144 20.7167 74.1607 21.1529 74.6923 21.6059ZM68.6245 17.509L68.372 17.9919C67.7645 17.6743 67.1456 17.3755 66.516 17.0964L66.7368 16.5983C67.3771 16.8822 68.0066 17.186 68.6245 17.509ZM61.7951 14.8693L61.6573 15.3964C60.9957 15.2234 60.3259 15.0709 59.6484 14.9397L59.752 14.4048C60.441 14.5382 61.1223 14.6933 61.7951 14.8693ZM54.5501 13.8242L54.533 14.3688C54.19 14.3579 53.8456 14.3525 53.4999 14.3525C53.1543 14.3525 52.8099 14.3579 52.4669 14.3688L52.4497 13.8242C52.7984 13.8132 53.1485 13.8076 53.4999 13.8076C53.8513 13.8076 54.2014 13.8132 54.5501 13.8242ZM47.2479 14.4048L47.3515 14.9397C46.674 15.0709 46.0041 15.2234 45.3426 15.3964L45.2047 14.8693C45.8776 14.6933 46.5589 14.5382 47.2479 14.4048ZM40.263 16.5983L40.4839 17.0964C39.8543 17.3755 39.2354 17.6743 38.6278 17.9919L38.3754 17.509C38.9933 17.186 39.6227 16.8822 40.263 16.5983ZM33.9456 20.298L34.2718 20.7344C33.721 21.1461 33.1838 21.5751 32.661 22.0206L32.3076 21.6059C32.8392 21.1529 33.3854 20.7167 33.9456 20.298ZM28.6059 25.3076L29.0206 25.661C28.5751 26.1838 28.1461 26.7209 27.7344 27.2718L27.298 26.9456C27.7167 26.3854 28.1529 25.8392 28.6059 25.3076ZM24.509 31.3754L24.9919 31.6278C24.6743 32.2354 24.3755 32.8543 24.0964 33.4839L23.5983 33.263C23.8822 32.6227 24.186 31.9933 24.509 31.3754ZM21.8693 38.2047L22.3964 38.3426C22.2234 39.0041 22.0709 39.674 21.9397 40.3515L21.4048 40.2479C21.5382 39.5589 21.6933 38.8776 21.8693 38.2047ZM20.8242 45.4497C20.8132 45.7984 20.8076 46.1485 20.8076 46.4999C20.8076 46.8513 20.8132 47.2014 20.8242 47.5501L21.3688 47.533C21.3579 47.19 21.3525 46.8456 21.3525 46.4999C21.3525 46.1543 21.3579 45.8099 21.3688 45.4669L20.8242 45.4497ZM21.4048 52.752L21.9397 52.6484C22.0709 53.3259 22.2234 53.9957 22.3964 54.6573L21.8693 54.7951C21.6933 54.1223 21.5382 53.441 21.4048 52.752ZM23.5983 59.7368L24.0964 59.516C24.3755 60.1456 24.6743 60.7645 24.9919 61.372L24.509 61.6245C24.186 61.0066 23.8822 60.3771 23.5983 59.7368ZM27.298 66.0543L27.7344 65.7281C28.1461 66.2789 28.5751 66.8161 29.0206 67.3389L28.6059 67.6923C28.1529 67.1607 27.7167 66.6144 27.298 66.0543ZM32.3076 71.394L32.661 70.9793C33.1838 71.4247 33.7209 71.8537 34.2718 72.2655L33.9456 72.7019C33.3854 72.2832 32.8392 71.847 32.3076 71.394ZM38.3754 75.4909L38.6278 75.008C39.2354 75.3256 39.8543 75.6243 40.4839 75.9034L40.263 76.4015C39.6227 76.1177 38.9933 75.8139 38.3754 75.4909ZM45.2047 78.1306L45.3426 77.6035C46.0041 77.7765 46.674 77.9289 47.3515 78.0601L47.2479 78.5951C46.5589 78.4616 45.8776 78.3066 45.2047 78.1306ZM52.4497 79.1757L52.4669 78.6311C52.8099 78.6419 53.1543 78.6474 53.4999 78.6474C53.8456 78.6474 54.19 78.6419 54.533 78.6311L54.5501 79.1757C54.2014 79.1867 53.8513 79.1922 53.4999 79.1922C53.1485 79.1922 52.7984 79.1867 52.4497 79.1757ZM59.752 78.5951L59.6484 78.0601C60.3259 77.9289 60.9957 77.7765 61.6573 77.6035L61.7951 78.1306C61.1223 78.3066 60.441 78.4616 59.752 78.5951ZM66.7368 76.4015L66.516 75.9034C67.1456 75.6243 67.7645 75.3256 68.372 75.008L68.6245 75.4909C68.0066 75.8139 67.3771 76.1177 66.7368 76.4015ZM73.0543 72.7019L72.7281 72.2655C73.2789 71.8537 73.8161 71.4247 74.3389 70.9793L74.6923 71.394C74.1607 71.847 73.6144 72.2832 73.0543 72.7019ZM78.394 67.6923L77.9793 67.3389C78.4247 66.8161 78.8537 66.2789 79.2655 65.7281L79.7019 66.0543C79.2832 66.6144 78.847 67.1607 78.394 67.6923ZM82.4909 61.6245L82.008 61.372C82.3256 60.7645 82.6243 60.1456 82.9034 59.516L83.4015 59.7368C83.1177 60.3771 82.8139 61.0066 82.4909 61.6245ZM85.1306 54.7951L84.6035 54.6573C84.7765 53.9957 84.9289 53.3259 85.0601 52.6484L85.5951 52.752C85.4616 53.441 85.3066 54.1223 85.1306 54.7951Z" fill="#FF004D"/>
</g>
<g filter="url(#filter2_d)">
<path fill-rule="evenodd" clip-rule="evenodd" d="M63.8099 5.26964C61.0639 4.58299 58.2562 4.17239 55.4286 4.04395L55.3772 5.17595C49.0541 4.88873 42.7481 6.05633 36.9451 8.59044C31.3528 11.0326 26.3738 14.6801 22.3618 19.2675L21.5087 18.5215C15.8582 24.9824 12.2964 33.0027 11.292 41.527C10.2876 50.0512 11.8878 58.6798 15.8819 66.2771L19.1102 64.5799C15.4588 57.6346 13.9959 49.7465 14.9141 41.9538C15.8323 34.161 19.0885 26.8289 24.2541 20.9225L23.2471 20.0417C27.145 15.5847 31.9824 12.0409 37.4158 9.6682C43.0538 7.20613 49.1805 6.07173 55.3238 6.35078L55.1002 11.2738C57.4463 11.3803 59.7759 11.721 62.0543 12.2907L63.8099 5.26964ZM95.5586 40.3907C94.4559 32.7991 91.3193 25.6498 86.4845 19.6995C86.411 19.609 86.3371 19.5189 86.2628 19.429C85.8739 18.9582 85.4748 18.4959 85.0659 18.0424L79.6906 22.8884C80.0946 23.3366 80.4871 23.795 80.8676 24.2633L85.6968 20.3395C90.4162 26.1477 93.4779 33.1263 94.5543 40.5366C94.8422 42.5188 94.9852 44.5117 94.9852 46.5002H92.1925C92.1925 53.5903 90.2443 60.5442 86.5607 66.6023C82.8772 72.6605 77.5998 77.59 71.3049 80.8527L71.3196 80.881C65.6491 83.82 59.3386 85.3113 52.9504 85.2206C46.6603 85.1314 40.489 83.5111 34.9695 80.503L34.9847 80.475C33.0441 79.4174 31.1976 78.1955 29.4656 76.8226L27.1005 79.8065C29.0029 81.3145 31.0311 82.6566 33.1627 83.8183L34.5186 81.3304C40.1724 84.4116 46.4938 86.0714 52.9371 86.1628C59.4807 86.2557 65.9447 84.7281 71.7532 81.7176L73.057 84.2331C79.9713 80.6494 85.768 75.2348 89.8141 68.5805C90.8802 66.8272 91.8139 65.0056 92.611 63.1309C94.8555 57.8524 96 52.1944 96 46.5002C96 44.4631 95.8536 42.4214 95.5586 40.3907ZM66.6204 6.07609C69.3127 6.94992 71.9109 8.09052 74.3765 9.48092L70.8214 15.7849C68.7758 14.6312 66.62 13.6849 64.3861 12.9598L66.6204 6.07609ZM83.2591 16.158C81.2383 14.176 79.0245 12.4009 76.6508 10.859L72.7085 16.9283C74.678 18.2076 76.5148 19.6804 78.1915 21.3249L83.2591 16.158Z" fill="url(#paint0_linear)"/>
</g>
<g filter="url(#filter3_d)">
<path d="M45.9524 33L49.0263 38.7738H69.6918L67.9745 41.6466H50.5849L61.3073 61.4426L68.9847 49.2834L60.2827 49.2976L59.0272 46.8373H70.4567L79 33H45.9524Z" fill="url(#paint1_linear)"/>
<path d="M28 33L53.5722 74L59.9796 63.7038L53.3268 51.7863L47.9584 51.829L54.8132 63.7322L53.5866 65.8512L37.4669 38.845H40.3387L46.5297 49.5394L52.1579 49.5251L42.9219 33H28Z" fill="url(#paint2_linear)"/>
</g>
<defs>
<filter id="filter0_d" x="12.6665" y="9.66699" width="81.6667" height="81.6667" filterUnits="userSpaceOnUse" color-interpolation-filters="sRGB">
<feFlood flood-opacity="0" result="BackgroundImageFix"/>
<feColorMatrix in="SourceAlpha" type="matrix" values="0 0 0 0 0 0 0 0 0 0 0 0 0 0 0 0 0 0 127 0"/>
<feOffset dy="4"/>
<feGaussianBlur stdDeviation="2"/>
<feColorMatrix type="matrix" values="0 0 0 0 0.92549 0 0 0 0 0.00392157 0 0 0 0 0.278431 0 0 0 1 0"/>
<feBlend mode="normal" in2="BackgroundImageFix" result="effect1_dropShadow"/>
<feBlend mode="normal" in="SourceGraphic" in2="effect1_dropShadow" result="shape"/>
</filter>
<filter id="filter1_d" x="16.8076" y="13.8076" width="73.3846" height="73.3846" filterUnits="userSpaceOnUse" color-interpolation-filters="sRGB">
<feFlood flood-opacity="0" result="BackgroundImageFix"/>
<feColorMatrix in="SourceAlpha" type="matrix" values="0 0 0 0 0 0 0 0 0 0 0 0 0 0 0 0 0 0 127 0"/>
<feOffset dy="4"/>
<feGaussianBlur stdDeviation="2"/>
<feColorMatrix type="matrix" values="0 0 0 0 0.92549 0 0 0 0 0.00392157 0 0 0 0 0.278431 0 0 0 1 0"/>
<feBlend mode="normal" in2="BackgroundImageFix" result="effect1_dropShadow"/>
<feBlend mode="normal" in="SourceGraphic" in2="effect1_dropShadow" result="shape"/>
</filter>
<filter id="filter2_d" x="7" y="0.0439453" width="93" height="90.1229" filterUnits="userSpaceOnUse" color-interpolation-filters="sRGB">
<feFlood flood-opacity="0" result="BackgroundImageFix"/>
<feColorMatrix in="SourceAlpha" type="matrix" values="0 0 0 0 0 0 0 0 0 0 0 0 0 0 0 0 0 0 127 0"/>
<feOffset/>
<feGaussianBlur stdDeviation="2"/>
<feColorMatrix type="matrix" values="0 0 0 0 0 0 0 0 0 0.815686 0 0 0 0 0.901961 0 0 0 0.25 0"/>
<feBlend mode="normal" in2="BackgroundImageFix" result="effect1_dropShadow"/>
<feBlend mode="normal" in="SourceGraphic" in2="effect1_dropShadow" result="shape"/>
</filter>
<filter id="filter3_d" x="0" y="5" width="107" height="97" filterUnits="userSpaceOnUse" color-interpolation-filters="sRGB">
<feFlood flood-opacity="0" result="BackgroundImageFix"/>
<feColorMatrix in="SourceAlpha" type="matrix" values="0 0 0 0 0 0 0 0 0 0 0 0 0 0 0 0 0 0 127 0"/>
<feOffset/>
<feGaussianBlur stdDeviation="14"/>
<feColorMatrix type="matrix" values="0 0 0 0 0.976471 0 0 0 0 0.027451 0 0 0 0 0.313726 0 0 0 1 0"/>
<feBlend mode="normal" in2="BackgroundImageFix" result="effect1_dropShadow"/>
<feBlend mode="normal" in="SourceGraphic" in2="effect1_dropShadow" result="shape"/>
</filter>
<linearGradient id="paint0_linear" x1="11" y1="45.1054" x2="96" y2="45.1054" gradientUnits="userSpaceOnUse">
<stop stop-color="#00FFC8"/>
<stop offset="1" stop-color="#00AAFD"/>
</linearGradient>
<linearGradient id="paint1_linear" x1="28" y1="53.5" x2="79" y2="53.5" gradientUnits="userSpaceOnUse">
<stop stop-color="#00FFC8"/>
<stop offset="1" stop-color="#00AAFD"/>
</linearGradient>
<linearGradient id="paint2_linear" x1="28" y1="53.5" x2="79" y2="53.5" gradientUnits="userSpaceOnUse">
<stop stop-color="#00FFC8"/>
<stop offset="1" stop-color="#00AAFD"/>
</linearGradient>
</defs>
</svg>
