<svg width="103" height="97" viewBox="0 0 103 97" fill="none" xmlns="http://www.w3.org/2000/svg">
<g filter="url(#filter0_d)">
<path fill-rule="evenodd" clip-rule="evenodd" d="M51.4998 82.2439C71.2405 82.2439 87.2434 66.241 87.2434 46.5003C87.2434 26.7597 71.2405 10.7567 51.4998 10.7567C31.7592 10.7567 15.7562 26.7597 15.7562 46.5003C15.7562 66.241 31.7592 82.2439 51.4998 82.2439ZM51.4998 83.3337C71.8423 83.3337 88.3332 66.8428 88.3332 46.5003C88.3332 26.1578 71.8423 9.66699 51.4998 9.66699C31.1574 9.66699 14.6665 26.1578 14.6665 46.5003C14.6665 66.8428 31.1574 83.3337 51.4998 83.3337Z" fill="#FF004D"/>
</g>
<g opacity="0.6" filter="url(#filter1_d)">
<path fill-rule="evenodd" clip-rule="evenodd" d="M84.1757 47.5501L83.6311 47.533C83.6419 47.19 83.6474 46.8456 83.6474 46.4999C83.6474 46.1543 83.6419 45.8099 83.6311 45.4669L84.1757 45.4497C84.1867 45.7984 84.1922 46.1485 84.1922 46.4999C84.1922 46.8513 84.1867 47.2014 84.1757 47.5501ZM83.5951 40.2479L83.0601 40.3515C82.9289 39.674 82.7765 39.0041 82.6035 38.3426L83.1306 38.2047C83.3066 38.8776 83.4616 39.5589 83.5951 40.2479ZM81.4015 33.263L80.9034 33.4839C80.6243 32.8543 80.3256 32.2354 80.008 31.6278L80.4909 31.3754C80.8139 31.9933 81.1177 32.6227 81.4015 33.263ZM77.7019 26.9456L77.2655 27.2718C76.8537 26.721 76.4247 26.1838 75.9793 25.661L76.394 25.3076C76.847 25.8392 77.2832 26.3854 77.7019 26.9456ZM72.6923 21.6059L72.3389 22.0206C71.8161 21.5751 71.2789 21.1461 70.7281 20.7344L71.0543 20.298C71.6144 20.7167 72.1607 21.1529 72.6923 21.6059ZM66.6245 17.509L66.372 17.9919C65.7645 17.6743 65.1456 17.3755 64.516 17.0964L64.7368 16.5983C65.3771 16.8822 66.0066 17.186 66.6245 17.509ZM59.7951 14.8693L59.6573 15.3964C58.9957 15.2234 58.3259 15.0709 57.6484 14.9397L57.752 14.4048C58.441 14.5382 59.1223 14.6933 59.7951 14.8693ZM52.5501 13.8242L52.533 14.3688C52.19 14.3579 51.8456 14.3525 51.4999 14.3525C51.1543 14.3525 50.8099 14.3579 50.4669 14.3688L50.4497 13.8242C50.7984 13.8132 51.1485 13.8076 51.4999 13.8076C51.8513 13.8076 52.2014 13.8132 52.5501 13.8242ZM45.2479 14.4048L45.3515 14.9397C44.674 15.0709 44.0041 15.2234 43.3426 15.3964L43.2047 14.8693C43.8776 14.6933 44.5589 14.5382 45.2479 14.4048ZM38.263 16.5983L38.4839 17.0964C37.8543 17.3755 37.2354 17.6743 36.6278 17.9919L36.3754 17.509C36.9933 17.186 37.6227 16.8822 38.263 16.5983ZM31.9456 20.298L32.2718 20.7344C31.721 21.1461 31.1838 21.5751 30.661 22.0206L30.3076 21.6059C30.8392 21.1529 31.3854 20.7167 31.9456 20.298ZM26.6059 25.3076L27.0206 25.661C26.5751 26.1838 26.1461 26.7209 25.7344 27.2718L25.298 26.9456C25.7167 26.3854 26.1529 25.8392 26.6059 25.3076ZM22.509 31.3754L22.9919 31.6278C22.6743 32.2354 22.3755 32.8543 22.0964 33.4839L21.5983 33.263C21.8822 32.6227 22.186 31.9933 22.509 31.3754ZM19.8693 38.2047L20.3964 38.3426C20.2234 39.0041 20.0709 39.674 19.9397 40.3515L19.4048 40.2479C19.5382 39.5589 19.6933 38.8776 19.8693 38.2047ZM18.8242 45.4497C18.8132 45.7984 18.8076 46.1485 18.8076 46.4999C18.8076 46.8513 18.8132 47.2014 18.8242 47.5501L19.3688 47.533C19.3579 47.19 19.3525 46.8456 19.3525 46.4999C19.3525 46.1543 19.3579 45.8099 19.3688 45.4669L18.8242 45.4497ZM19.4048 52.752L19.9397 52.6484C20.0709 53.3259 20.2234 53.9957 20.3964 54.6573L19.8693 54.7951C19.6933 54.1223 19.5382 53.441 19.4048 52.752ZM21.5983 59.7368L22.0964 59.516C22.3755 60.1456 22.6743 60.7645 22.9919 61.372L22.509 61.6245C22.186 61.0066 21.8822 60.3771 21.5983 59.7368ZM25.298 66.0543L25.7344 65.7281C26.1461 66.2789 26.5751 66.8161 27.0206 67.3389L26.6059 67.6923C26.1529 67.1607 25.7167 66.6144 25.298 66.0543ZM30.3076 71.394L30.661 70.9793C31.1838 71.4247 31.7209 71.8537 32.2718 72.2655L31.9456 72.7019C31.3854 72.2832 30.8392 71.847 30.3076 71.394ZM36.3754 75.4909L36.6278 75.008C37.2354 75.3256 37.8543 75.6243 38.4839 75.9034L38.263 76.4015C37.6227 76.1177 36.9933 75.8139 36.3754 75.4909ZM43.2047 78.1306L43.3426 77.6035C44.0041 77.7765 44.674 77.9289 45.3515 78.0601L45.2479 78.5951C44.5589 78.4616 43.8776 78.3066 43.2047 78.1306ZM50.4497 79.1757L50.4669 78.6311C50.8099 78.6419 51.1543 78.6474 51.4999 78.6474C51.8456 78.6474 52.19 78.6419 52.533 78.6311L52.5501 79.1757C52.2014 79.1867 51.8513 79.1922 51.4999 79.1922C51.1485 79.1922 50.7984 79.1867 50.4497 79.1757ZM57.752 78.5951L57.6484 78.0601C58.3259 77.9289 58.9957 77.7765 59.6573 77.6035L59.7951 78.1306C59.1223 78.3066 58.441 78.4616 57.752 78.5951ZM64.7368 76.4015L64.516 75.9034C65.1456 75.6243 65.7645 75.3256 66.372 75.008L66.6245 75.4909C66.0066 75.8139 65.3771 76.1177 64.7368 76.4015ZM71.0543 72.7019L70.7281 72.2655C71.2789 71.8537 71.8161 71.4247 72.3389 70.9793L72.6923 71.394C72.1607 71.847 71.6144 72.2832 71.0543 72.7019ZM76.394 67.6923L75.9793 67.3389C76.4247 66.8161 76.8537 66.2789 77.2655 65.7281L77.7019 66.0543C77.2832 66.6144 76.847 67.1607 76.394 67.6923ZM80.4909 61.6245L80.008 61.372C80.3256 60.7645 80.6243 60.1456 80.9034 59.516L81.4015 59.7368C81.1177 60.3771 80.8139 61.0066 80.4909 61.6245ZM83.1306 54.7951L82.6035 54.6573C82.7765 53.9957 82.9289 53.3259 83.0601 52.6484L83.5951 52.752C83.4616 53.441 83.3066 54.1223 83.1306 54.7951Z" fill="#FF004D"/>
</g>
<g filter="url(#filter2_d)">
<path fill-rule="evenodd" clip-rule="evenodd" d="M61.8099 5.26964C59.0639 4.58299 56.2562 4.17239 53.4286 4.04395L53.3772 5.17595C47.0541 4.88873 40.7481 6.05633 34.9451 8.59044C29.3528 11.0326 24.3738 14.6801 20.3618 19.2675L19.5087 18.5215C13.8582 24.9824 10.2964 33.0027 9.29201 41.527C8.28764 50.0512 9.88781 58.6798 13.8819 66.2771L17.1102 64.5799C13.4588 57.6346 11.9959 49.7465 12.9141 41.9538C13.8323 34.161 17.0885 26.8289 22.2541 20.9225L21.2471 20.0417C25.145 15.5847 29.9824 12.0409 35.4158 9.6682C41.0538 7.20613 47.1805 6.07173 53.3238 6.35078L53.1002 11.2738C55.4463 11.3803 57.7759 11.721 60.0543 12.2907L61.8099 5.26964ZM93.5586 40.3907C92.4559 32.7991 89.3193 25.6498 84.4845 19.6995C84.411 19.609 84.3371 19.5189 84.2628 19.429C83.8739 18.9582 83.4748 18.4959 83.0659 18.0424L77.6906 22.8884C78.0946 23.3366 78.4871 23.795 78.8676 24.2633L83.6968 20.3395C88.4162 26.1477 91.4779 33.1263 92.5543 40.5366C92.8422 42.5188 92.9852 44.5117 92.9852 46.5002H90.1925C90.1925 53.5903 88.2443 60.5442 84.5607 66.6023C80.8772 72.6605 75.5998 77.59 69.3049 80.8527L69.3196 80.881C63.6491 83.82 57.3386 85.3113 50.9504 85.2206C44.6603 85.1314 38.489 83.5111 32.9695 80.503L32.9847 80.475C31.0441 79.4174 29.1976 78.1955 27.4656 76.8226L25.1005 79.8065C27.0029 81.3145 29.0311 82.6566 31.1627 83.8183L32.5186 81.3304C38.1724 84.4116 44.4938 86.0714 50.9371 86.1628C57.4807 86.2557 63.9447 84.7281 69.7532 81.7176L71.057 84.2331C77.9713 80.6494 83.768 75.2348 87.8141 68.5805C88.8802 66.8272 89.8139 65.0056 90.611 63.1309C92.8555 57.8524 94 52.1944 94 46.5002C94 44.4631 93.8536 42.4214 93.5586 40.3907ZM64.6204 6.07609C67.3127 6.94992 69.9109 8.09052 72.3765 9.48092L68.8214 15.7849C66.7758 14.6312 64.62 13.6849 62.3861 12.9598L64.6204 6.07609ZM81.2591 16.158C79.2383 14.176 77.0245 12.4009 74.6508 10.859L70.7085 16.9283C72.678 18.2076 74.5148 19.6804 76.1915 21.3249L81.2591 16.158Z" fill="url(#paint0_linear)"/>
</g>
<g clip-path="url(#clip0)" filter="url(#filter3_dd)">
<path d="M74.1091 35.8984C73.8594 35.5753 73.474 35.3861 73.0657 35.3861H39.5179L38.0526 29.7497C37.9016 29.1684 37.3769 28.7627 36.7762 28.7627H29.934C29.2057 28.7627 28.6152 29.3532 28.6152 30.0815C28.6152 30.8098 29.2057 31.4003 29.934 31.4003H35.7563L37.2216 37.0367C37.2216 37.0369 37.2216 37.0369 37.2218 37.0371L42.388 56.9012C42.5391 57.4824 43.0638 57.888 43.6643 57.888H67.8985C68.499 57.888 69.0237 57.4824 69.1748 56.9012L74.3417 37.0367C74.4448 36.6418 74.3588 36.2212 74.1091 35.8984ZM49.3424 55.2507H44.6841L43.6481 51.2676H49.3424V55.2507V55.2507ZM49.3424 48.6299H42.9622L41.9256 44.6442H49.3424V48.6299V48.6299ZM49.3424 42.0066H41.2395L40.2036 38.0237H49.3424V42.0066ZM59.5835 55.2507H51.98V51.2676H59.5835V55.2507ZM59.5835 48.6299H51.98V44.6442H59.5835V48.6299ZM59.5835 42.0066H51.98V38.0237H59.5835V42.0066ZM66.879 55.2507H62.2211V51.2676H67.9151L66.879 55.2507ZM68.6012 48.6299H62.2211V44.6442H69.6379L68.6012 48.6299ZM70.324 42.0066H62.2213V38.0237H71.3602L70.324 42.0066Z" fill="url(#paint1_linear)"/>
<path d="M47.1629 58.9609C44.5067 58.9609 42.3457 61.122 42.3457 63.778C42.3457 66.4346 44.5067 68.596 47.1629 68.596C49.819 68.596 51.98 66.4346 51.98 63.778C51.98 61.122 49.8191 58.9609 47.1629 58.9609ZM47.1629 65.9584C45.9611 65.9584 44.9833 64.9802 44.9833 63.778C44.9833 62.5762 45.9611 61.5985 47.1629 61.5985C48.3646 61.5985 49.3424 62.5763 49.3424 63.778C49.3424 64.9804 48.3648 65.9584 47.1629 65.9584Z" fill="url(#paint2_linear)"/>
<path d="M64.4 58.9609C61.7442 58.9609 59.5835 61.122 59.5835 63.778C59.5835 66.4346 61.7442 68.596 64.4 68.596C67.0564 68.596 69.2173 66.4346 69.2173 63.778C69.2173 61.122 67.0562 58.9609 64.4 58.9609ZM64.4 65.9584C63.1985 65.9584 62.2211 64.9802 62.2211 63.778C62.2211 62.5762 63.1985 61.5985 64.4 61.5985C65.6021 61.5985 66.5797 62.5763 66.5797 63.778C66.5797 64.9804 65.6019 65.9584 64.4 65.9584Z" fill="url(#paint3_linear)"/>
</g>
<defs>
<filter id="filter0_d" x="10.6665" y="9.66699" width="81.6667" height="81.6667" filterUnits="userSpaceOnUse" color-interpolation-filters="sRGB">
<feFlood flood-opacity="0" result="BackgroundImageFix"/>
<feColorMatrix in="SourceAlpha" type="matrix" values="0 0 0 0 0 0 0 0 0 0 0 0 0 0 0 0 0 0 127 0"/>
<feOffset dy="4"/>
<feGaussianBlur stdDeviation="2"/>
<feColorMatrix type="matrix" values="0 0 0 0 0.92549 0 0 0 0 0.00392157 0 0 0 0 0.278431 0 0 0 1 0"/>
<feBlend mode="normal" in2="BackgroundImageFix" result="effect1_dropShadow"/>
<feBlend mode="normal" in="SourceGraphic" in2="effect1_dropShadow" result="shape"/>
</filter>
<filter id="filter1_d" x="14.8076" y="13.8076" width="73.3846" height="73.3846" filterUnits="userSpaceOnUse" color-interpolation-filters="sRGB">
<feFlood flood-opacity="0" result="BackgroundImageFix"/>
<feColorMatrix in="SourceAlpha" type="matrix" values="0 0 0 0 0 0 0 0 0 0 0 0 0 0 0 0 0 0 127 0"/>
<feOffset dy="4"/>
<feGaussianBlur stdDeviation="2"/>
<feColorMatrix type="matrix" values="0 0 0 0 0.92549 0 0 0 0 0.00392157 0 0 0 0 0.278431 0 0 0 1 0"/>
<feBlend mode="normal" in2="BackgroundImageFix" result="effect1_dropShadow"/>
<feBlend mode="normal" in="SourceGraphic" in2="effect1_dropShadow" result="shape"/>
</filter>
<filter id="filter2_d" x="5" y="0.0439453" width="93" height="90.1229" filterUnits="userSpaceOnUse" color-interpolation-filters="sRGB">
<feFlood flood-opacity="0" result="BackgroundImageFix"/>
<feColorMatrix in="SourceAlpha" type="matrix" values="0 0 0 0 0 0 0 0 0 0 0 0 0 0 0 0 0 0 127 0"/>
<feOffset/>
<feGaussianBlur stdDeviation="2"/>
<feColorMatrix type="matrix" values="0 0 0 0 0 0 0 0 0 0.815686 0 0 0 0 0.901961 0 0 0 0.25 0"/>
<feBlend mode="normal" in2="BackgroundImageFix" result="effect1_dropShadow"/>
<feBlend mode="normal" in="SourceGraphic" in2="effect1_dropShadow" result="shape"/>
</filter>
<filter id="filter3_dd" x="0.615234" y="-2.20508" width="101.769" height="101.769" filterUnits="userSpaceOnUse" color-interpolation-filters="sRGB">
<feFlood flood-opacity="0" result="BackgroundImageFix"/>
<feColorMatrix in="SourceAlpha" type="matrix" values="0 0 0 0 0 0 0 0 0 0 0 0 0 0 0 0 0 0 127 0"/>
<feOffset/>
<feGaussianBlur stdDeviation="2"/>
<feColorMatrix type="matrix" values="0 0 0 0 0 0 0 0 0 0.815686 0 0 0 0 0.901961 0 0 0 0.25 0"/>
<feBlend mode="normal" in2="BackgroundImageFix" result="effect1_dropShadow"/>
<feColorMatrix in="SourceAlpha" type="matrix" values="0 0 0 0 0 0 0 0 0 0 0 0 0 0 0 0 0 0 127 0"/>
<feOffset/>
<feGaussianBlur stdDeviation="14"/>
<feColorMatrix type="matrix" values="0 0 0 0 0.976471 0 0 0 0 0.027451 0 0 0 0 0.313726 0 0 0 1 0"/>
<feBlend mode="normal" in2="effect1_dropShadow" result="effect2_dropShadow"/>
<feBlend mode="normal" in="SourceGraphic" in2="effect2_dropShadow" result="shape"/>
</filter>
<linearGradient id="paint0_linear" x1="9" y1="45.1054" x2="94" y2="45.1054" gradientUnits="userSpaceOnUse">
<stop stop-color="#00FFC8"/>
<stop offset="1" stop-color="#00AAFD"/>
</linearGradient>
<linearGradient id="paint1_linear" x1="28.6152" y1="43.3254" x2="74.3844" y2="43.3254" gradientUnits="userSpaceOnUse">
<stop stop-color="#00FFC8"/>
<stop offset="1" stop-color="#00AAFD"/>
</linearGradient>
<linearGradient id="paint2_linear" x1="42.3457" y1="63.7784" x2="51.98" y2="63.7784" gradientUnits="userSpaceOnUse">
<stop stop-color="#00FFC8"/>
<stop offset="1" stop-color="#00AAFD"/>
</linearGradient>
<linearGradient id="paint3_linear" x1="59.5835" y1="63.7784" x2="69.2173" y2="63.7784" gradientUnits="userSpaceOnUse">
<stop stop-color="#00FFC8"/>
<stop offset="1" stop-color="#00AAFD"/>
</linearGradient>
<clipPath id="clip0">
<rect width="45.7692" height="45.7692" fill="white" transform="translate(28.6152 25.7949)"/>
</clipPath>
</defs>
</svg>
