<svg xmlns="http://www.w3.org/2000/svg" width="263" height="12" fill="none" viewBox="0 0 263 12"><path fill="#151D24" fill-rule="evenodd" d="M263 0.893303L101.271 0.893296C101.292 0.997959 101.304 1.10631 101.304 1.21726C101.304 2.10916 100.577 2.83218 99.6802 2.83218C98.7836 2.83218 98.0568 2.10916 98.0568 1.21726C98.0568 1.10631 98.068 0.997959 98.0894 0.893295L16.884 0.893282L16.884 3.47883L11.0396 3.47883L11.0396 0.893281L9.6521e-07 0.89328L5.84445 0.893845L4.54223e-07 6.70756L1.05956e-10 11.8747L263 11.876L263 4.12452L171.437 4.1245L168.19 0.894657L263 0.894674L263 0.893303ZM49.3531 5.41643L44.8074 0.894647L44.158 0.894647L49.3531 6.0624L135.072 6.06241L135.072 5.41644L49.3531 5.41643ZM28.5728 3.47803L22.7284 3.47803L22.7284 9.29175L28.5728 9.29175L28.5728 3.47803ZM34.4172 3.47803L31.8196 3.47803L31.8196 6.0619L34.4172 6.0619L34.4172 3.47803ZM38.3135 3.47803L44.1579 9.29175L38.3135 9.29175L38.3135 3.47803ZM206.504 7.35374L141.566 7.35373L141.566 7.9997L206.504 7.99971L208.452 9.93762L256.031 9.93763C256.255 10.3239 256.675 10.5838 257.156 10.5838C257.873 10.5838 258.454 10.0054 258.454 9.29183C258.454 8.57832 257.873 7.9999 257.156 7.9999C256.438 7.9999 255.857 8.57822 255.857 9.29166L208.452 9.29165L206.504 7.35374ZM83.121 9.29201C83.121 9.64876 82.8302 9.93797 82.4716 9.93797C82.1129 9.93797 81.8222 9.64876 81.8222 9.29201C81.8222 8.93525 82.1129 8.64604 82.4716 8.64604C82.8302 8.64604 83.121 8.93525 83.121 9.29201Z" clip-rule="evenodd"/></svg>