<svg data-v-ed5d3de8="" data-v-63554934="" width="18" height="19" viewBox="0 0 18 19" fill="#ff004d" xmlns="http://www.w3.org/2000/svg"><path data-v-ed5d3de8="" d="M15.7265 4.21524C14.4951 5.46409 13.7025 7.14027 13.5791 8.99786H17.5716C17.4661 7.19769 16.7803 5.54699 15.7265 4.21524Z"></path> <path data-v-ed5d3de8="" d="M9.50237 0.928711V8.99791H12.5747C12.7011 6.84092 13.6216 4.89403 15.0604 3.45869C13.6264 2.0282 11.652 1.0547 9.50237 0.928711Z"></path> <path data-v-ed5d3de8="" d="M13.5792 10.0024C13.7025 11.8599 14.4952 13.5696 15.7265 14.8185C16.7803 13.4867 17.4661 11.8025 17.5716 10.0024H13.5792Z"></path> <path data-v-ed5d3de8="" d="M2.93987 3.45869C4.3787 4.89403 5.29916 6.84092 5.42559 8.99791H8.49791V0.928711C6.34829 1.0547 4.37384 2.0282 2.93987 3.45869Z"></path> <path data-v-ed5d3de8="" d="M12.5747 10.0024H9.50237V18.0716C11.652 17.9456 13.6264 17.0056 15.0604 15.5751C13.6216 14.1397 12.7011 12.1594 12.5747 10.0024Z"></path> <path data-v-ed5d3de8="" d="M5.42559 10.0024C5.29916 12.1594 4.3787 14.1397 2.93987 15.5751C4.37384 17.0056 6.34829 17.9456 8.49791 18.0716V10.0024H5.42559Z"></path> <path data-v-ed5d3de8="" d="M0.428711 10.0024C0.534213 11.8025 1.21999 13.4867 2.27378 14.8185C3.50515 13.5696 4.29777 11.86 4.42116 10.0024H0.428711Z"></path> <path data-v-ed5d3de8="" d="M2.27374 4.21524C1.21999 5.54699 0.534213 7.19769 0.428711 8.99786H4.42112C4.29777 7.1403 3.50512 5.46409 2.27374 4.21524Z"></path></svg>