<svg data-v-5eed1a12="" data-v-63554934="" width="18" height="19" viewBox="0 0 18 19" fill="white" xmlns="http://www.w3.org/2000/svg"><path data-v-5eed1a12="" d="M17.3824 1.11781C16.0681 0.679462 14.6434 1.01586 13.6636 1.99561L10.0842 5.57495L2.62647 2.37882L1.20593 3.7993L7.24318 8.41602L3.98002 11.6792L1.84922 10.9689L0.428711 12.3894L3.98002 14.5202L6.11082 18.0716L7.53133 16.651L6.82108 14.5203L10.0842 11.2571L14.7009 17.2944L16.1215 15.8738L12.9253 8.41605L16.5047 4.83667C17.4844 3.85692 17.8208 2.43225 17.3824 1.11781Z"></path> <path data-v-5eed1a12="" d="M16.4767 9.83679C16.0844 9.44448 15.4484 9.44448 15.0561 9.83679L14.7559 10.137L15.6082 12.1258L16.4767 11.2573C16.8689 10.865 16.8689 10.2291 16.4767 9.83679Z"></path> <path data-v-5eed1a12="" d="M8.66381 2.02343C8.27156 1.63112 7.63557 1.63112 7.2433 2.02343L6.3748 2.89196L8.36357 3.74425L8.66381 3.44395C9.05612 3.0517 9.05612 2.41574 8.66381 2.02343Z"></path></svg>