<svg data-v-6976986d="" data-v-63554934="" width="24" height="25" viewBox="0 0 24 25" fill="#ff004d" xmlns="http://www.w3.org/2000/svg"><path data-v-6976986d="" d="M21.4284 15.833C21.4284 13.493 20.086 11.4046 18.0754 10.3887C18.013 14.8754 14.3754 18.513 9.88873 18.5754C10.9046 20.586 12.993 21.9284 15.333 21.9284C16.4301 21.9284 17.4971 21.6362 18.4345 21.081L21.4018 21.9018L20.581 18.9345C21.1362 17.9971 21.4284 16.9301 21.4284 15.833Z"></path> <path data-v-6976986d="" d="M16.972 10.2716C16.972 6.30128 13.742 3.07129 9.77162 3.07129C5.80128 3.07129 2.57129 6.30128 2.57129 10.2716C2.57129 11.5656 2.91571 12.8254 3.56974 13.9315L2.59776 17.4453L6.11175 16.4735C7.21781 17.1275 8.47767 17.472 9.77162 17.472C13.742 17.472 16.972 14.242 16.972 10.2716ZM8.66671 8.59584H7.5618C7.5618 7.37728 8.55306 6.38602 9.77162 6.38602C10.9902 6.38602 11.9814 7.37728 11.9814 8.59584C11.9814 9.21433 11.7196 9.8088 11.2628 10.2266L10.3241 11.0858V11.9474H9.21917V10.5992L10.5169 9.41143C10.7488 9.19923 10.8765 8.90962 10.8765 8.59584C10.8765 7.98656 10.3809 7.49093 9.77162 7.49093C9.16234 7.49093 8.66671 7.98656 8.66671 8.59584ZM9.21917 13.0523H10.3241V14.1572H9.21917V13.0523Z"></path></svg>