<svg data-v-fc928432="" data-v-63554934="" width="18" height="19" viewBox="0 0 18 19" fill="#ff004d" xmlns="http://www.w3.org/2000/svg"><path data-v-fc928432="" fill-rule="evenodd" clip-rule="evenodd" d="M3.92942 14.8755L7.42236 1.28931C7.48877 1.03099 7.7365 0.877226 7.97788 0.944508L17.2322 3.52404C17.4774 3.59238 17.6225 3.86244 17.555 4.12482L14.0621 17.711C13.9957 17.9693 13.7479 18.1231 13.5066 18.0558L4.25225 15.4762C4.00708 15.4079 3.86196 15.1378 3.92942 14.8755ZM12.1363 7.35725C12.8849 8.4125 13.7271 9.59964 13.3905 10.8656C13.1179 11.8913 11.3034 12.1303 10.41 11.5228C10.4039 11.5459 10.3978 11.5686 10.3919 11.5909C10.2217 12.2295 10.1322 12.5655 10.2735 13.3117L8.97004 12.9663C9.47991 12.3711 9.57343 12.0219 9.75523 11.3382C8.68007 11.4144 7.2169 10.2961 7.48952 9.27048C7.82622 8.004 9.14208 7.40047 10.3126 6.86362C10.7218 6.67591 11.1133 6.49635 11.439 6.29946C11.6235 6.63436 11.8742 6.98772 12.1363 7.35725Z"></path> <path data-v-fc928432="" d="M4.20932 2.5336C3.959 2.53516 3.7559 2.75298 3.75451 3.02137L3.70262 13.0075C3.70188 13.1502 3.89092 13.1774 3.92631 13.0397L6.47154 3.13862C6.55168 2.82686 6.33288 2.52029 6.03159 2.52218L4.20932 2.5336Z"></path> <path data-v-fc928432="" d="M0.767411 4.62973C0.524234 4.70009 0.379484 4.96826 0.444104 5.2287L3.0077 15.5607C3.04184 15.6983 3.23089 15.6716 3.23167 15.5291L3.29223 4.53725C3.294 4.21529 3.00986 3.98085 2.71964 4.06483L0.767411 4.62973Z"></path></svg>