<svg data-v-5cf4bd7e="" data-v-63554934="" xmlns="http://www.w3.org/2000/svg" width="24" height="25" viewBox="0 0 24 25" fill="white"><path data-v-5cf4bd7e="" d="M8.37277 9.07366C8.29836 8.88765 8.17188 8.75744 7.9933 8.68304C7.81473 8.60863 7.63244 8.60863 7.44643 8.68304C6.64286 9.01042 5.93229 9.48289 5.31473 10.1004C4.69717 10.718 4.2247 11.4286 3.89732 12.2321C3.82292 12.4182 3.82292 12.6004 3.89732 12.779C3.97173 12.9576 4.10193 13.0841 4.28795 13.1585C4.38467 13.1957 4.47396 13.2143 4.5558 13.2143C4.8683 13.2143 5.09152 13.0655 5.22545 12.7679C5.47842 12.1429 5.84487 11.5904 6.32478 11.1105C6.80469 10.6306 7.35714 10.2641 7.98214 10.0112C8.16815 9.92932 8.29836 9.79911 8.37277 9.62054C8.44717 9.44196 8.44717 9.25967 8.37277 9.07366ZM18.8862 5.10045L19.3996 5.61384L16.6763 8.32589L17.4353 9.08482C17.5766 9.22619 17.6473 9.39546 17.6473 9.59263C17.6473 9.78981 17.5766 9.95908 17.4353 10.1004L16.721 10.8147C17.3832 12.0126 17.7143 13.2887 17.7143 14.6429C17.7143 15.7068 17.5078 16.7243 17.0949 17.6953C16.6819 18.6663 16.1239 19.5033 15.4208 20.2065C14.7176 20.9096 13.8806 21.4676 12.9096 21.8806C11.9386 22.2935 10.9211 22.5 9.85714 22.5C8.79315 22.5 7.77567 22.2935 6.80469 21.8806C5.83371 21.4676 4.99665 20.9096 4.29353 20.2065C3.5904 19.5033 3.03237 18.6663 2.61942 17.6953C2.20647 16.7243 2 15.7068 2 14.6429C2 13.5789 2.20647 12.5614 2.61942 11.5904C3.03237 10.6194 3.5904 9.78237 4.29353 9.07924C4.99665 8.37612 5.83371 7.81808 6.80469 7.40513C7.77567 6.99219 8.79315 6.78571 9.85714 6.78571C11.2113 6.78571 12.4874 7.11682 13.6853 7.77902L14.3996 7.06473C14.5409 6.92336 14.7102 6.85268 14.9074 6.85268C15.1045 6.85268 15.2738 6.92336 15.4152 7.06473L16.1741 7.82366L18.8862 5.10045ZM18.9754 4.47545C18.901 4.54985 18.8192 4.58705 18.7299 4.58705C18.6332 4.58705 18.5476 4.54985 18.4732 4.47545L17.4576 3.47098C17.3906 3.39658 17.3571 3.31101 17.3571 3.21429C17.3571 3.11756 17.3906 3.03199 17.4576 2.95759C17.532 2.89062 17.6176 2.85714 17.7143 2.85714C17.811 2.85714 17.8966 2.89062 17.971 2.95759L18.9754 3.97321C19.0499 4.04018 19.0871 4.12388 19.0871 4.22433C19.0871 4.32478 19.0499 4.40848 18.9754 4.47545ZM21.5424 7.04241C21.4606 7.10938 21.375 7.14286 21.2857 7.14286C21.1964 7.14286 21.1109 7.10938 21.029 7.04241L20.0246 6.02679C19.9501 5.95982 19.9129 5.87612 19.9129 5.77567C19.9129 5.67522 19.9501 5.59152 20.0246 5.52455C20.0915 5.45015 20.1752 5.41295 20.2757 5.41295C20.3761 5.41295 20.4598 5.45015 20.5268 5.52455L21.5424 6.52902C21.6094 6.60342 21.6429 6.68899 21.6429 6.78571C21.6429 6.88244 21.6094 6.96801 21.5424 7.04241ZM22 5C22 5.10417 21.9665 5.18973 21.8996 5.2567C21.8326 5.32366 21.747 5.35714 21.6429 5.35714H20.5714C20.4673 5.35714 20.3817 5.32366 20.3147 5.2567C20.2478 5.18973 20.2143 5.10417 20.2143 5C20.2143 4.89583 20.2478 4.81027 20.3147 4.7433C20.3817 4.67634 20.4673 4.64286 20.5714 4.64286H21.6429C21.747 4.64286 21.8326 4.67634 21.8996 4.7433C21.9665 4.81027 22 4.89583 22 5ZM19.8571 2.85714V3.92857C19.8571 4.03274 19.8237 4.1183 19.7567 4.18527C19.6897 4.25223 19.6042 4.28571 19.5 4.28571C19.3958 4.28571 19.3103 4.25223 19.2433 4.18527C19.1763 4.1183 19.1429 4.03274 19.1429 3.92857V2.85714C19.1429 2.75298 19.1763 2.66741 19.2433 2.60045C19.3103 2.53348 19.3958 2.5 19.5 2.5C19.6042 2.5 19.6897 2.53348 19.7567 2.60045C19.8237 2.66741 19.8571 2.75298 19.8571 2.85714ZM21.5424 3.47098L20.5268 4.47545C20.4524 4.54985 20.3705 4.58705 20.2812 4.58705C20.1845 4.58705 20.099 4.54985 20.0246 4.47545C19.9501 4.40848 19.9129 4.32478 19.9129 4.22433C19.9129 4.12388 19.9501 4.04018 20.0246 3.97321L21.029 2.95759C21.1034 2.89062 21.189 2.85714 21.2857 2.85714C21.3824 2.85714 21.468 2.89062 21.5424 2.95759C21.6094 3.03199 21.6429 3.11756 21.6429 3.21429C21.6429 3.31101 21.6094 3.39658 21.5424 3.47098Z"></path></svg>