<svg data-v-081df8da="" viewBox="0 0 161 31" fill="none" xmlns="http://www.w3.org/2000/svg" class="iconLogo header__logo"><path d="M12.5927 0.205078L14.7488 4.37346H29.2446L28.04 6.44738H15.8421L23.3633 20.739L28.7486 11.9607L22.6446 11.971L21.7639 10.1948H29.7811L35.7738 0.205078H12.5927Z" fill="url(#paint0_linear)"></path> <path d="M0 0.205078L17.9375 29.8047L22.432 22.3714L17.7654 13.7677L13.9997 13.7985L18.808 22.3919L17.9476 23.9217L6.64052 4.42479H8.65494L12.9976 12.1455L16.9455 12.1353L10.4669 0.205078H0Z" fill="url(#paint1_linear)"></path> <path d="M39.3369 29.7229L48.3158 0.277344H58.1551L54.7539 29.7332H49.2471L49.8443 24.9693H46.3317L44.9955 29.7332H39.3369V29.7229ZM47.7388 20.2671H50.3707L52.2333 5.27734H51.96L47.7388 20.2671Z" fill="white"></path> <path d="M58.0541 28.0082C57.1633 26.6838 57.0216 24.5483 57.6391 21.6016L58.2464 18.7166H63.9557L63.1863 22.3819C62.8826 23.8398 63.1863 24.5791 64.1075 24.5791C64.6238 24.5791 65.0185 24.425 65.2817 24.117C65.5449 23.809 65.7575 23.2854 65.9093 22.5565C66.1118 21.6016 66.1624 20.8008 66.0713 20.1745C65.9802 19.5483 65.798 19.0246 65.5348 18.5934C65.2716 18.1725 64.7857 17.5154 64.067 16.6222L62.0931 14.0862C60.5544 12.1663 60.0382 10.0411 60.524 7.71047C61.0504 5.19507 62.0222 3.28542 63.4394 1.97125C64.8667 0.657084 66.6685 0 68.8551 0C71.4667 0 73.2078 0.698152 74.0581 2.10472C74.9084 3.51129 75.0299 5.70842 74.4023 8.70636H68.4906L68.8854 6.68378C68.9664 6.29363 68.9259 5.98563 68.7538 5.75975C68.5919 5.53388 68.3084 5.42094 67.9339 5.42094C67.4784 5.42094 67.1139 5.54415 66.8406 5.80082C66.5673 6.05749 66.375 6.3963 66.2839 6.82751C66.0814 7.79261 66.4155 8.77823 67.286 9.81519L69.9787 13.1109C70.6063 13.8912 71.1023 14.6201 71.4768 15.3183C71.8514 16.0164 72.0943 16.8378 72.2057 17.7823C72.3272 18.7269 72.2462 19.8563 71.9729 21.1602C71.3655 24.0657 70.3836 26.2628 69.017 27.7618C67.6504 29.2608 65.7676 30.0103 63.3584 30.0103C60.7063 30 58.9449 29.3326 58.0541 28.0082Z" fill="white"></path> <path d="M71.8208 29.7229L77.9957 0.277344H83.6037L77.4288 29.7229H71.8208Z" fill="white"></path> <path d="M79.7671 29.7229L85.9318 0.277344H91.9245L91.6411 14.3636L94.5868 0.277344H100.205L94.03 29.7229H88.3512L88.5334 14.9796L85.4459 29.7229H79.7671Z" fill="white"></path> <path d="M98.5856 27.8234C97.6745 26.3758 97.4923 24.3326 98.0389 21.7043L100.975 7.67967C101.511 5.14374 102.513 3.22382 104.001 1.94045C105.499 0.646817 107.413 0 109.761 0C112.11 0 113.749 0.646817 114.701 1.94045C115.642 3.23409 115.855 5.14374 115.318 7.67967L112.383 21.7043C111.826 24.3532 110.794 26.4066 109.275 27.8439C107.757 29.2813 105.823 30 103.485 30C101.126 30 99.4966 29.271 98.5856 27.8234ZM105.793 23.9014C106.066 23.4497 106.289 22.8029 106.461 21.9815L109.478 7.577C109.609 6.94045 109.64 6.41684 109.548 6.01643C109.467 5.61602 109.164 5.42094 108.648 5.42094C107.676 5.42094 107.038 6.16016 106.724 7.64887L103.718 22.0123C103.536 22.8542 103.505 23.501 103.617 23.9322C103.728 24.3634 104.052 24.5791 104.598 24.5791C105.125 24.5791 105.52 24.3532 105.793 23.9014Z" fill="white"></path> <path d="M112.281 29.7229L113.405 24.3739L123.943 5.68802H117.96L119.094 0.277344H131.231L130.158 5.42108L119.398 24.3123H125.896L124.752 29.7229H112.281Z" fill="white"></path> <path d="M126.889 29.7229L133.064 0.277344H144.684L143.49 5.96523H137.781L136.586 11.6942H142.063L140.899 17.2486H135.422L134.005 24.0042H140.089L138.884 29.7229H126.889Z" fill="white"></path> <path d="M33.8808 22.3509C33.567 23.8396 32.9597 24.5788 32.0587 24.5788C31.6032 24.5788 31.3097 24.4042 31.1578 24.0449C31.006 23.6856 31.0161 23.1209 31.1781 22.3509L33.8808 9.44531L25.2563 23.1414C24.8007 25.4207 25.155 26.6527 26.1268 27.9771C27.1188 29.3221 28.6676 29.9997 30.7934 29.9997C35.6827 29.9997 38.6486 27.5357 39.6812 22.5973L40.8453 17.0428H34.9943L33.8808 22.3509Z" fill="white"></path> <path d="M39.357 0.246094L36.1076 5.42063C36.5834 5.4309 36.8871 5.5849 37.0187 5.89291C37.1503 6.21118 37.13 6.7964 36.9579 7.63829L36.0469 11.9915H41.827L42.8898 6.9196C43.3555 4.68141 43.0619 2.96683 42.0092 1.77587C41.3411 1.03665 40.4604 0.523301 39.357 0.246094Z" fill="white"></path> <path d="M149.513 16.2835C150.343 16.2835 150.899 16.3964 151.163 16.6223C151.426 16.8482 151.476 17.3718 151.304 18.2034L148.895 29.7229H149.978L156.983 18.5628C157.236 17.3615 157.236 16.4067 156.993 15.6983C156.75 14.9899 156.204 14.5484 155.364 14.3636C156.497 13.994 157.378 13.3472 158.006 12.4129C158.633 11.4786 159.119 10.1747 159.463 8.50116C159.848 6.67365 160.03 5.17467 160 3.99398C159.98 2.81328 159.645 1.89952 158.998 1.2527C158.36 0.605886 157.327 0.277344 155.91 0.277344H146.982L140.807 29.7332H146.688L149.513 16.2835ZM151.76 5.72909H153.116C153.45 5.72909 153.693 5.80096 153.845 5.95496C153.997 6.0987 154.058 6.37591 154.048 6.75578C154.038 7.14593 153.946 7.73114 153.784 8.50116C153.41 10.2876 152.823 11.1706 152.003 11.1706H150.616L151.76 5.72909Z" fill="white"></path> <defs><linearGradient id="paint0_linear" x1="0" y1="15.0049" x2="35.7738" y2="15.0049" gradientUnits="userSpaceOnUse"><stop stop-color="#00FFC8"></stop> <stop offset="1" stop-color="#00AAFD"></stop></linearGradient> <linearGradient id="paint1_linear" x1="0" y1="15.0049" x2="35.7738" y2="15.0049" gradientUnits="userSpaceOnUse"><stop stop-color="#00FFC8"></stop> <stop offset="1" stop-color="#00AAFD"></stop></linearGradient></defs></svg>