<svg data-v-957df61c="" data-v-63554934="" width="18" height="19" viewBox="0 0 18 19" fill="#ff004d" xmlns="http://www.w3.org/2000/svg"><g data-v-957df61c=""><path data-v-957df61c="" d="M15.7084 4.28275H13.7289C13.92 3.95342 14.0314 3.57223 14.0314 3.16475C14.0314 1.9317 13.0284 0.928711 11.7954 0.928711C10.6295 0.928711 9.60161 1.52744 9.00034 2.43286C8.39906 1.52744 7.37116 0.928711 6.20531 0.928711C4.9723 0.928711 3.96927 1.9317 3.96927 3.16475C3.96927 3.57223 4.08064 3.95342 4.27182 4.28275H2.29225C1.36751 4.28275 0.615234 5.03503 0.615234 5.95977V7.45046C0.615234 7.75907 0.865446 8.00948 1.17425 8.00948C6.90248 8.00948 11.0119 8.00948 16.8264 8.00948C17.1352 8.00948 17.3854 7.75907 17.3854 7.45046V5.95977C17.3854 5.03503 16.6332 4.28275 15.7084 4.28275ZM5.08728 3.16475C5.08728 2.54824 5.58877 2.04675 6.20528 2.04675C7.43829 2.04675 8.44132 3.04974 8.44132 4.28278C7.62472 4.28278 6.9979 4.28278 6.20528 4.28278C5.58881 4.28275 5.08728 3.78126 5.08728 3.16475ZM9.55935 6.89144H8.44135V5.40075C8.84592 5.40075 9.15479 5.40075 9.55935 5.40075V6.89144ZM11.7954 4.28275C11.0029 4.28275 10.3759 4.28275 9.55932 4.28275C9.55932 3.04974 10.5623 2.04671 11.7954 2.04671C12.4119 2.04671 12.9134 2.54821 12.9134 3.16472C12.9134 3.78126 12.4119 4.28275 11.7954 4.28275Z"></path> <path data-v-957df61c="" d="M15.7081 9.12793H2.29193C1.98312 9.12793 1.73291 9.37834 1.73291 9.68695V16.395C1.73291 17.3198 2.48519 18.0721 3.40993 18.0721C7.2815 18.0721 8.80903 18.0721 9.34869 18.0721C9.54781 18.0721 9.61246 18.0721 9.61072 18.0721C10.1033 18.0721 11.419 18.0721 14.5901 18.0721C15.5148 18.0721 16.2671 17.3198 16.2671 16.395V9.68691C16.2671 9.37831 16.0169 9.12793 15.7081 9.12793ZM9.55903 16.954H8.44102V10.2459H9.55903V16.954Z"></path></g></svg>