<svg data-v-62ce228c="" data-v-63554934="" width="18" height="19" viewBox="0 0 18 19" fill="#ff004d" xmlns="http://www.w3.org/2000/svg"><path data-v-62ce228c="" d="M17.5654 17.5394L16.4536 5.40773C16.4317 5.1684 16.205 4.98401 15.9327 4.98401H12.948V4.4006C12.948 2.48619 11.2051 0.928711 9.03395 0.928711H8.96497C6.79393 0.928711 5.00446 2.48619 5.00446 4.4006V4.98401H2.06624C1.79393 4.98401 1.56726 5.1684 1.54531 5.40773L0.430416 17.5736C0.41864 17.7019 0.468252 17.8286 0.567199 17.9232C0.666145 18.0177 0.805507 18.0716 0.951348 18.0716H17.0476H17.049C17.3376 18.0716 17.5716 17.8653 17.5716 17.6107C17.5716 17.5865 17.5695 17.5626 17.5654 17.5394ZM6.04967 4.4006C6.04967 2.99439 7.37026 1.85037 8.96497 1.85037H9.03395C10.6287 1.85037 11.9028 2.99439 11.9028 4.4006V4.98401H6.04967V4.4006Z"></path></svg>