<svg data-v-9e852d7a="" data-v-63554934="" width="18" height="19" viewBox="0 0 18 19" fill="#ff004d" xmlns="http://www.w3.org/2000/svg"><path data-v-9e852d7a="" d="M8.1956 0.961796C6.27785 1.14063 4.40576 1.96609 2.93447 3.4365C1.46318 4.9065 0.638536 6.77855 0.460122 8.69876C2.56591 8.94292 4.80489 10.0192 6.64306 11.8574C8.48207 13.6959 9.55967 15.9365 9.80175 18.0406C11.7249 17.8622 13.5924 17.0371 15.065 15.5675C16.5358 14.098 17.3596 12.2251 17.5372 10.3053C15.4365 10.0615 13.1937 8.98522 11.3555 7.14668C9.51863 5.30855 8.44102 3.06754 8.1956 0.961796Z"></path> <path data-v-9e852d7a="" d="M17.5716 9.24195C17.5092 7.13328 16.6749 5.04429 15.0675 3.43483C13.4592 1.82537 11.3677 0.994044 9.25897 0.928711C9.49601 2.77019 10.4739 4.74903 12.1132 6.38864C13.7524 8.02826 15.7288 9.00449 17.5716 9.24195Z"></path> <path data-v-9e852d7a="" d="M0.428711 9.76126C0.490695 11.8691 1.32539 13.9585 2.93447 15.5671C4.54229 17.1749 6.63133 18.0104 8.73964 18.0716C8.50259 16.2326 7.52592 14.255 5.88585 12.6154C4.24745 10.9766 2.26898 9.99998 0.428711 9.76126Z"></path></svg>