<svg data-v-301feff5="" data-v-63554934="" width="18" height="16" viewBox="0 0 18 16" fill="white" xmlns="http://www.w3.org/2000/svg"><path data-v-301feff5="" d="M17.5641 5.25058C17.5556 5.19651 17.5383 5.14358 17.5172 5.09261C17.5125 5.08158 17.5125 5.07034 17.5074 5.05916C17.5068 5.05854 17.5059 5.05729 17.5056 5.05667C17.5056 5.05543 17.5049 5.05481 17.5043 5.05403L15.6085 1.07083C15.6041 1.06167 15.5959 1.05343 15.5909 1.04411C15.5843 1.03292 15.5821 1.01925 15.5748 1.00817C15.5604 0.983929 15.5406 0.965077 15.5236 0.94348C15.5063 0.921262 15.4905 0.897283 15.4714 0.877603C15.4431 0.848393 15.4107 0.823482 15.3777 0.799192C15.357 0.783034 15.3375 0.765166 15.3149 0.752063C15.2766 0.729223 15.2351 0.71291 15.1929 0.697321C15.1719 0.689397 15.1515 0.677278 15.1294 0.671218C15.0641 0.652988 14.9962 0.642578 14.9258 0.642578H3.75283C3.68651 0.642578 3.62224 0.651745 3.55969 0.667904C3.53787 0.673652 3.51792 0.684891 3.49636 0.692193C3.45805 0.706487 3.41874 0.718969 3.38278 0.739323C3.3598 0.752426 3.34096 0.769931 3.31955 0.784277C3.28872 0.805873 3.25685 0.826538 3.22948 0.852692C3.21016 0.871492 3.19477 0.89371 3.17761 0.914892C3.15735 0.938405 3.13364 0.959691 3.1171 0.986414L0.542462 4.96972C0.532883 4.98525 0.52833 5.00286 0.519641 5.01933C0.512261 5.03238 0.500013 5.04357 0.493575 5.05786C0.486823 5.07283 0.486509 5.08852 0.480072 5.10282C0.466254 5.13933 0.455262 5.17574 0.446573 5.21355C0.440136 5.24353 0.43464 5.2729 0.431499 5.30247C0.427888 5.33976 0.428202 5.37694 0.430086 5.4146C0.432441 5.44526 0.43464 5.4754 0.439507 5.50523C0.446259 5.5419 0.457931 5.57628 0.469708 5.61161C0.480386 5.64164 0.489964 5.67163 0.504305 5.69996C0.509016 5.70975 0.511057 5.72094 0.515768 5.73103C0.529272 5.75589 0.549214 5.77537 0.565753 5.79774C0.578943 5.81716 0.586951 5.83757 0.602025 5.85497L8.38383 14.9497C8.51803 15.1064 8.71918 15.2178 8.91969 15.2121C8.9222 15.2121 8.92477 15.2134 8.92644 15.2134C8.93764 15.214 8.94832 15.214 8.95963 15.214C8.95963 15.214 8.96057 15.214 8.9612 15.214C9.02846 15.214 9.09446 15.2016 9.15795 15.1848C9.17679 15.1789 9.1938 15.173 9.21264 15.1658C9.25949 15.1497 9.30508 15.1279 9.34841 15.1024C9.36286 15.094 9.37825 15.0856 9.39243 15.0762C9.44367 15.0411 9.49172 15.0007 9.53323 14.9519L17.395 5.8573C17.405 5.84549 17.4107 5.8312 17.4195 5.81872C17.432 5.80302 17.4478 5.78997 17.4584 5.77221C17.4698 5.75465 17.4754 5.73492 17.4848 5.71612C17.4981 5.69204 17.5106 5.66775 17.5204 5.64164C17.5351 5.60373 17.5452 5.56525 17.554 5.52672C17.5597 5.50057 17.566 5.47571 17.5685 5.44961C17.5735 5.40667 17.5716 5.36483 17.5685 5.32225C17.5666 5.29708 17.5678 5.27357 17.5641 5.25058Z"></path></svg>